<mxfile host="app.diagrams.net" modified="2024-07-11T08:09:09.714Z" agent="Mozilla/5.0 (Windows NT 10.0; Win64; x64) AppleWebKit/537.36 (KHTML, like Gecko) Chrome/126.0.0.0 Safari/537.36" etag="mJLTOKS_ax-1oXxZhzh_" version="24.6.4" type="device">
  <diagram name="Страница — 1" id="0e5GRpqP4qVhgoxqQGmo">
    <mxGraphModel dx="1170" dy="268" grid="1" gridSize="10" guides="1" tooltips="1" connect="1" arrows="1" fold="1" page="1" pageScale="1" pageWidth="827" pageHeight="1169" math="0" shadow="0">
      <root>
        <mxCell id="0" />
        <mxCell id="1" parent="0" />
        <mxCell id="yrrOHY21MLCQewiOi2q3-157" value="" style="group" parent="1" vertex="1" connectable="0">
          <mxGeometry x="100" y="70" width="120" height="210" as="geometry" />
        </mxCell>
        <mxCell id="yrrOHY21MLCQewiOi2q3-70" value="" style="rounded=0;whiteSpace=wrap;html=1;fontFamily=Times New Roman;" parent="yrrOHY21MLCQewiOi2q3-157" vertex="1">
          <mxGeometry width="120" height="20" as="geometry" />
        </mxCell>
        <mxCell id="yrrOHY21MLCQewiOi2q3-71" value="" style="shape=internalStorage;whiteSpace=wrap;html=1;backgroundOutline=1;fontFamily=Times New Roman;dx=30;dy=20;" parent="yrrOHY21MLCQewiOi2q3-157" vertex="1">
          <mxGeometry y="20" width="120" height="180" as="geometry" />
        </mxCell>
        <mxCell id="yrrOHY21MLCQewiOi2q3-72" value="messages" style="text;html=1;align=center;verticalAlign=middle;whiteSpace=wrap;rounded=0;fontFamily=Times New Roman;" parent="yrrOHY21MLCQewiOi2q3-157" vertex="1">
          <mxGeometry width="120" height="20" as="geometry" />
        </mxCell>
        <mxCell id="yrrOHY21MLCQewiOi2q3-73" value="PK" style="text;html=1;align=center;verticalAlign=middle;whiteSpace=wrap;rounded=0;fontFamily=Times New Roman;" parent="yrrOHY21MLCQewiOi2q3-157" vertex="1">
          <mxGeometry y="20" width="22.22222222222222" height="20" as="geometry" />
        </mxCell>
        <mxCell id="yrrOHY21MLCQewiOi2q3-74" value="ID" style="text;html=1;align=left;verticalAlign=middle;whiteSpace=wrap;rounded=0;fontFamily=Times New Roman;" parent="yrrOHY21MLCQewiOi2q3-157" vertex="1">
          <mxGeometry x="30" y="20" width="70" height="20" as="geometry" />
        </mxCell>
        <mxCell id="yrrOHY21MLCQewiOi2q3-75" value="SENDER" style="text;html=1;align=left;verticalAlign=middle;whiteSpace=wrap;rounded=0;fontFamily=Times New Roman;" parent="yrrOHY21MLCQewiOi2q3-157" vertex="1">
          <mxGeometry x="30" y="40" width="70" height="20" as="geometry" />
        </mxCell>
        <mxCell id="yrrOHY21MLCQewiOi2q3-76" value="RECEIVER" style="text;html=1;align=left;verticalAlign=middle;whiteSpace=wrap;rounded=0;fontFamily=Times New Roman;" parent="yrrOHY21MLCQewiOi2q3-157" vertex="1">
          <mxGeometry x="30" y="60" width="70" height="20" as="geometry" />
        </mxCell>
        <mxCell id="yrrOHY21MLCQewiOi2q3-79" value="FK1" style="text;html=1;align=center;verticalAlign=middle;whiteSpace=wrap;rounded=0;fontFamily=Times New Roman;" parent="yrrOHY21MLCQewiOi2q3-157" vertex="1">
          <mxGeometry y="40" width="30" height="20" as="geometry" />
        </mxCell>
        <mxCell id="yrrOHY21MLCQewiOi2q3-80" value="MESSAGE" style="text;html=1;align=left;verticalAlign=middle;whiteSpace=wrap;rounded=0;fontFamily=Times New Roman;" parent="yrrOHY21MLCQewiOi2q3-157" vertex="1">
          <mxGeometry x="30" y="100" width="70" height="20" as="geometry" />
        </mxCell>
        <mxCell id="yrrOHY21MLCQewiOi2q3-81" value="HEADER" style="text;html=1;align=left;verticalAlign=middle;whiteSpace=wrap;rounded=0;fontFamily=Times New Roman;" parent="yrrOHY21MLCQewiOi2q3-157" vertex="1">
          <mxGeometry x="30" y="80" width="70" height="20" as="geometry" />
        </mxCell>
        <mxCell id="yrrOHY21MLCQewiOi2q3-84" value="ATTACHMENT" style="text;html=1;align=left;verticalAlign=middle;whiteSpace=wrap;rounded=0;fontFamily=Times New Roman;" parent="yrrOHY21MLCQewiOi2q3-157" vertex="1">
          <mxGeometry x="30" y="120" width="70" height="20" as="geometry" />
        </mxCell>
        <mxCell id="yrrOHY21MLCQewiOi2q3-85" value="CREATED_AT" style="text;html=1;align=left;verticalAlign=middle;whiteSpace=wrap;rounded=0;fontFamily=Times New Roman;" parent="yrrOHY21MLCQewiOi2q3-157" vertex="1">
          <mxGeometry x="30" y="140" width="70" height="20" as="geometry" />
        </mxCell>
        <mxCell id="yrrOHY21MLCQewiOi2q3-86" value="UPDATED_AT" style="text;html=1;align=left;verticalAlign=middle;whiteSpace=wrap;rounded=0;fontFamily=Times New Roman;" parent="yrrOHY21MLCQewiOi2q3-157" vertex="1">
          <mxGeometry x="30" y="160" width="70" height="20" as="geometry" />
        </mxCell>
        <mxCell id="UVfhPatA-PSGFKoo0VmQ-1" value="FK2" style="text;html=1;align=center;verticalAlign=middle;whiteSpace=wrap;rounded=0;fontFamily=Times New Roman;" parent="yrrOHY21MLCQewiOi2q3-157" vertex="1">
          <mxGeometry y="60" width="30" height="20" as="geometry" />
        </mxCell>
        <mxCell id="LdOtDhsQV5hEDSDGk5Kp-2" value="DELETED_AT" style="text;html=1;align=left;verticalAlign=middle;whiteSpace=wrap;rounded=0;fontFamily=Times New Roman;" vertex="1" parent="yrrOHY21MLCQewiOi2q3-157">
          <mxGeometry x="30" y="180" width="70" height="20" as="geometry" />
        </mxCell>
        <mxCell id="yrrOHY21MLCQewiOi2q3-166" style="edgeStyle=orthogonalEdgeStyle;rounded=0;orthogonalLoop=1;jettySize=auto;html=1;exitX=1;exitY=0.25;exitDx=0;exitDy=0;entryX=0;entryY=0.5;entryDx=0;entryDy=0;fontFamily=Times New Roman;fontSize=12;fontColor=default;startArrow=ERone;startFill=0;endArrow=ERzeroToMany;endFill=0;" parent="1" source="yrrOHY21MLCQewiOi2q3-7" target="yrrOHY21MLCQewiOi2q3-79" edge="1">
          <mxGeometry relative="1" as="geometry">
            <Array as="points">
              <mxPoint x="80" y="95" />
              <mxPoint x="80" y="120" />
            </Array>
          </mxGeometry>
        </mxCell>
        <mxCell id="yrrOHY21MLCQewiOi2q3-167" style="edgeStyle=orthogonalEdgeStyle;rounded=0;orthogonalLoop=1;jettySize=auto;html=1;exitX=1;exitY=0.5;exitDx=0;exitDy=0;entryX=0;entryY=0.5;entryDx=0;entryDy=0;fontFamily=Times New Roman;fontSize=12;fontColor=default;startArrow=ERone;startFill=0;endArrow=ERzeroToMany;endFill=0;" parent="1" source="yrrOHY21MLCQewiOi2q3-7" edge="1">
          <mxGeometry relative="1" as="geometry">
            <Array as="points">
              <mxPoint x="70" y="100" />
              <mxPoint x="70" y="140" />
            </Array>
            <mxPoint x="100" y="140" as="targetPoint" />
          </mxGeometry>
        </mxCell>
        <mxCell id="yrrOHY21MLCQewiOi2q3-179" value="" style="group" parent="1" vertex="1" connectable="0">
          <mxGeometry x="-90" y="70" width="130" height="180" as="geometry" />
        </mxCell>
        <mxCell id="yrrOHY21MLCQewiOi2q3-5" value="" style="rounded=0;whiteSpace=wrap;html=1;fontFamily=Times New Roman;" parent="yrrOHY21MLCQewiOi2q3-179" vertex="1">
          <mxGeometry width="130" height="20" as="geometry" />
        </mxCell>
        <mxCell id="yrrOHY21MLCQewiOi2q3-1" value="" style="shape=internalStorage;whiteSpace=wrap;html=1;backgroundOutline=1;fontFamily=Times New Roman;" parent="yrrOHY21MLCQewiOi2q3-179" vertex="1">
          <mxGeometry y="20" width="130" height="160" as="geometry" />
        </mxCell>
        <mxCell id="yrrOHY21MLCQewiOi2q3-2" value="users" style="text;html=1;align=center;verticalAlign=middle;whiteSpace=wrap;rounded=0;fontFamily=Times New Roman;" parent="yrrOHY21MLCQewiOi2q3-179" vertex="1">
          <mxGeometry width="130" height="20" as="geometry" />
        </mxCell>
        <mxCell id="yrrOHY21MLCQewiOi2q3-3" value="PK" style="text;html=1;align=center;verticalAlign=middle;whiteSpace=wrap;rounded=0;fontFamily=Times New Roman;" parent="yrrOHY21MLCQewiOi2q3-179" vertex="1">
          <mxGeometry y="20" width="20" height="20" as="geometry" />
        </mxCell>
        <mxCell id="yrrOHY21MLCQewiOi2q3-7" value="ID" style="text;html=1;align=left;verticalAlign=middle;whiteSpace=wrap;rounded=0;fontFamily=Times New Roman;" parent="yrrOHY21MLCQewiOi2q3-179" vertex="1">
          <mxGeometry x="20" y="20" width="110" height="20" as="geometry" />
        </mxCell>
        <mxCell id="yrrOHY21MLCQewiOi2q3-8" value="LOGIN" style="text;html=1;align=left;verticalAlign=middle;whiteSpace=wrap;rounded=0;fontFamily=Times New Roman;" parent="yrrOHY21MLCQewiOi2q3-179" vertex="1">
          <mxGeometry x="20" y="40" width="100" height="20" as="geometry" />
        </mxCell>
        <mxCell id="yrrOHY21MLCQewiOi2q3-9" value="FULL_NAME" style="text;html=1;align=left;verticalAlign=middle;whiteSpace=wrap;rounded=0;fontFamily=Times New Roman;" parent="yrrOHY21MLCQewiOi2q3-179" vertex="1">
          <mxGeometry x="20" y="60" width="100" height="20" as="geometry" />
        </mxCell>
        <mxCell id="yrrOHY21MLCQewiOi2q3-10" value="PASSWORD_HASH" style="text;html=1;align=left;verticalAlign=middle;whiteSpace=wrap;rounded=0;fontFamily=Times New Roman;" parent="yrrOHY21MLCQewiOi2q3-179" vertex="1">
          <mxGeometry x="20" y="80" width="100" height="20" as="geometry" />
        </mxCell>
        <mxCell id="yrrOHY21MLCQewiOi2q3-11" value="ROLE_ID" style="text;html=1;align=left;verticalAlign=middle;whiteSpace=wrap;rounded=0;fontFamily=Times New Roman;" parent="yrrOHY21MLCQewiOi2q3-179" vertex="1">
          <mxGeometry x="20" y="100" width="100" height="20" as="geometry" />
        </mxCell>
        <mxCell id="yrrOHY21MLCQewiOi2q3-12" value="CREATED_AT" style="text;html=1;align=left;verticalAlign=middle;whiteSpace=wrap;rounded=0;fontFamily=Times New Roman;" parent="yrrOHY21MLCQewiOi2q3-179" vertex="1">
          <mxGeometry x="20" y="120" width="100" height="20" as="geometry" />
        </mxCell>
        <mxCell id="yrrOHY21MLCQewiOi2q3-13" value="UPDATED_AT" style="text;html=1;align=left;verticalAlign=middle;whiteSpace=wrap;rounded=0;fontFamily=Times New Roman;" parent="yrrOHY21MLCQewiOi2q3-179" vertex="1">
          <mxGeometry x="20" y="140" width="100" height="20" as="geometry" />
        </mxCell>
        <mxCell id="yrrOHY21MLCQewiOi2q3-14" value="DETELED_AT" style="text;html=1;align=left;verticalAlign=middle;whiteSpace=wrap;rounded=0;fontFamily=Times New Roman;" parent="yrrOHY21MLCQewiOi2q3-179" vertex="1">
          <mxGeometry x="20" y="160" width="100" height="20" as="geometry" />
        </mxCell>
      </root>
    </mxGraphModel>
  </diagram>
</mxfile>
